<svg width="20" height="20" viewBox="0 0 20 20" fill="none" xmlns="http://www.w3.org/2000/svg">
<path d="M7.5 15.8333V10.8333C7.5 10.6122 7.4122 10.4003 7.25592 10.244C7.09964 10.0877 6.88768 9.99992 6.66667 9.99992H3.33333C3.11232 9.99992 2.90036 10.0877 2.74408 10.244C2.5878 10.4003 2.5 10.6122 2.5 10.8333V15.8333C2.5 16.0543 2.5878 16.2662 2.74408 16.4225C2.90036 16.5788 3.11232 16.6666 3.33333 16.6666M7.5 15.8333C7.5 16.0543 7.4122 16.2662 7.25592 16.4225C7.09964 16.5788 6.88768 16.6666 6.66667 16.6666H3.33333M7.5 15.8333C7.5 16.0543 7.5878 16.2662 7.74408 16.4225C7.90036 16.5788 8.11232 16.6666 8.33333 16.6666H11.6667C11.8877 16.6666 12.0996 16.5788 12.2559 16.4225C12.4122 16.2662 12.5 16.0543 12.5 15.8333M7.5 15.8333V7.49992C7.5 7.2789 7.5878 7.06694 7.74408 6.91066C7.90036 6.75438 8.11232 6.66659 8.33333 6.66659H11.6667C11.8877 6.66659 12.0996 6.75438 12.2559 6.91066C12.4122 7.06694 12.5 7.2789 12.5 7.49992V15.8333M3.33333 16.6666H15M12.5 15.8333C12.5 16.0543 12.5878 16.2662 12.7441 16.4225C12.9004 16.5788 13.1123 16.6666 13.3333 16.6666H16.6667C16.8877 16.6666 17.0996 16.5788 17.2559 16.4225C17.4122 16.2662 17.5 16.0543 17.5 15.8333V4.16659C17.5 3.94557 17.4122 3.73361 17.2559 3.57733C17.0996 3.42105 16.8877 3.33325 16.6667 3.33325H13.3333C13.1123 3.33325 12.9004 3.42105 12.7441 3.57733C12.5878 3.73361 12.5 3.94557 12.5 4.16659V15.8333Z" stroke="#1AA7FF" stroke-width="1.5" stroke-linecap="round" stroke-linejoin="round"/>
</svg>
