<svg width="32" height="28" viewBox="0 0 32 28" fill="none" xmlns="http://www.w3.org/2000/svg">
<circle cx="13.9641" cy="14.4807" r="11.8328" fill="white"/>
<path d="M13.7417 2.64795C15.9093 2.64802 17.9372 3.24363 19.6733 4.27783L7.65967 24.147C4.34323 22.1031 2.13135 18.4389 2.13135 14.2573C2.1315 7.84562 7.32998 2.64795 13.7417 2.64795Z" fill="#1AA7FF" fill-opacity="0.2"/>
<mask id="path-3-inside-1_552_4691" fill="white">
<path d="M24.8161 20.1562C23.3226 22.7803 20.926 24.7719 18.0729 25.7601C15.2198 26.7482 12.1048 26.6654 9.30825 25.5271C6.51167 24.3889 4.22427 22.2728 2.8722 19.5731C1.52013 16.8733 1.19562 13.7742 1.95911 10.853C2.72261 7.93173 4.52205 5.38769 7.02218 3.6948C9.5223 2.00192 12.5526 1.27566 15.5485 1.65133C18.5444 2.027 21.3015 3.47898 23.3063 5.73675C25.311 7.99452 26.4266 10.9041 26.4452 13.9234L25.0624 13.9319C25.0458 11.2481 24.0542 8.66181 22.2722 6.6549C20.4902 4.648 18.0394 3.35735 15.3764 3.02342C12.7134 2.68949 10.0198 3.33506 7.7975 4.83984C5.57517 6.34462 3.97567 8.60599 3.29701 11.2026C2.61835 13.7993 2.9068 16.5541 4.10864 18.9538C5.31048 21.3535 7.34372 23.2345 9.82956 24.2463C12.3154 25.2581 15.0843 25.3317 17.6204 24.4534C20.1564 23.575 22.2867 21.8047 23.6143 19.4722L24.8161 20.1562Z"/>
</mask>
<path d="M24.8161 20.1562C23.3226 22.7803 20.926 24.7719 18.0729 25.7601C15.2198 26.7482 12.1048 26.6654 9.30825 25.5271C6.51167 24.3889 4.22427 22.2728 2.8722 19.5731C1.52013 16.8733 1.19562 13.7742 1.95911 10.853C2.72261 7.93173 4.52205 5.38769 7.02218 3.6948C9.5223 2.00192 12.5526 1.27566 15.5485 1.65133C18.5444 2.027 21.3015 3.47898 23.3063 5.73675C25.311 7.99452 26.4266 10.9041 26.4452 13.9234L25.0624 13.9319C25.0458 11.2481 24.0542 8.66181 22.2722 6.6549C20.4902 4.648 18.0394 3.35735 15.3764 3.02342C12.7134 2.68949 10.0198 3.33506 7.7975 4.83984C5.57517 6.34462 3.97567 8.60599 3.29701 11.2026C2.61835 13.7993 2.9068 16.5541 4.10864 18.9538C5.31048 21.3535 7.34372 23.2345 9.82956 24.2463C12.3154 25.2581 15.0843 25.3317 17.6204 24.4534C20.1564 23.575 22.2867 21.8047 23.6143 19.4722L24.8161 20.1562Z" fill="#333D4B" stroke="#333D4B" stroke-width="1.74965" mask="url(#path-3-inside-1_552_4691)"/>
<rect x="22.9646" y="20.7681" width="1.44709" height="9.32379" transform="rotate(-60.2007 22.9646 20.7681)" fill="#333D4B"/>
</svg>
