<svg width="16" height="16" viewBox="0 0 16 16" fill="none" xmlns="http://www.w3.org/2000/svg">
<path d="M6.66667 9.33333L14 2M6.66667 9.33333L9 14C9.02925 14.0638 9.07621 14.1179 9.1353 14.1558C9.19439 14.1938 9.26312 14.2139 9.33333 14.2139C9.40355 14.2139 9.47228 14.1938 9.53137 14.1558C9.59046 14.1179 9.63742 14.0638 9.66667 14L14 2M6.66667 9.33333L2 7C1.93617 6.97075 1.88209 6.92379 1.84417 6.8647C1.80624 6.80561 1.78609 6.73688 1.78609 6.66667C1.78609 6.59646 1.80624 6.52772 1.84417 6.46863C1.88209 6.40954 1.93617 6.36258 2 6.33333L14 2" stroke="white" stroke-linecap="round" stroke-linejoin="round"/>
</svg>
