<svg width="20" height="20" viewBox="0 0 20 20" fill="none" xmlns="http://www.w3.org/2000/svg">
<path d="M10 9.99992H7.5C6.17392 9.99992 4.90215 9.47313 3.96447 8.53545C3.02678 7.59777 2.5 6.326 2.5 4.99992V3.33325H5C6.32608 3.33325 7.59785 3.86004 8.53553 4.79772C9.47322 5.7354 10 7.00717 10 8.33325V16.6666M10 11.6666C10 10.3405 10.5268 9.06873 11.4645 8.13105C12.4021 7.19337 13.6739 6.66659 15 6.66659H17.5V7.49992C17.5 8.826 16.9732 10.0978 16.0355 11.0355C15.0979 11.9731 13.8261 12.4999 12.5 12.4999H10" stroke="black" stroke-opacity="0.7" stroke-width="1.5" stroke-linecap="round" stroke-linejoin="round"/>
</svg>
